<?xml version="1.0" encoding="UTF-8"?>
<svg id="Layer_2" data-name="Layer 2" xmlns="http://www.w3.org/2000/svg" viewBox="0 0 629.17 1007.25">
  <g id="Layer_1-2" data-name="Layer 1">
    <path d="m629.17,685.99c0-167.53-134.5-302.76-315.14-315.69-12.23-.88-15.66-4.46-15.54-13.84.81-61.44,202.92-213.62,202.92-355.86L157.49,0c-19.94.02-28.67,8.15-31.3,28.02-2.43,18.36-10.4,81.3-12.05,95.89,12.57,0,16.04-1.56,19.27-11.81,7.2-22.81,44.81-58.99,107.29-58.99l53.72-1.07c0,69-211.91,241.46-211.91,413.6,229.57-39.07,386.36,66.73,392.89,243.64,3.79,102.72-35.09,237.73-155.2,244.25-78.4,4.25-175.32-57.48-175.32-209.21,0-99.62,56.78-197.6,93.53-190.66,20.01,3.78,21.02,41.72,17.29,57.41-3.93,16.52,22.38,22,39.76,22,20.41,0,36.58-13.77,36.58-35.39,0-46.19-45.42-98.62-142.28-83.47C95.78,528.91,6.8,610.4.34,728.33c-7.44,135.91,106,278.92,308.93,278.92s319.89-125.23,319.89-321.26Z"/>
  </g>
</svg>