<?xml version="1.0" encoding="UTF-8"?>
<svg id="Layer_2" data-name="Layer 2" xmlns="http://www.w3.org/2000/svg" viewBox="0 0 2662.68 860.64">
  <g id="Layer_1-2" data-name="Layer 1">
    <g>
      <path d="m2396.04,613.36c-13.41-10.88-37.11-26.66-37.11-77.6,0-38.92,38.26-99.9,133.92-99.9,26.41,0,42.13,4.1,53.11,7.3,0,0,18.16-20.2,30.99-32.08,19.18-17.75,45.7-20.59,66.48-10.64,13.73,6.69,19.25,22.73,19.25,34.9-.67,20.83-6.73,30.37-28.32,30.37-24.04,0-19.34-21.43-33.44-21.43-10.86,0-19.87,4.62-27.24,10.5,21.4,12.69,44.91,42.06,44.91,80.98,0,57.73-44.05,100.04-126.41,100.04-31.23,0-44.19-3.34-55.23-6.04,0,0-19.45,3.02-19.45,23.02,0,37.67,229.82-58.42,229.82,87.89,0,103.34-91.05,119.97-155.14,119.97-73.66,0-135.93-19.09-135.93-56.78,0-26.9,17.13-43.97,38.25-43.97,7.5,0,21.9,3.43,27.08,8.53,0,42.7,50.14,56.27,89.53,56.27,45.44,0,84.4-16.52,84.4-46.38,0-58.4-242.88,33.33-242.88-85.17,0-54.2,40.5-77.31,43.42-79.78Zm116.17-78.65c-2.04-38.87-4.17-79.48-24.19-78.43-20.03,1.05-17.9,41.57-15.86,80.53,2.04,38.96,4.17,79.48,24.19,78.43,20.03-1.05,17.9-41.66,15.86-80.53Z"/>
      <path d="m329.09,650.07c4.75,4.07,9.26,7.93,13.96,11.97-26.87,28.73-66.56,65.05-147.18,65.05C47.33,727.09,0,609.61,0,535.75c0-94.08,37.15-210.43,204.19-210.43,91.83,0,133.57,43.69,133.57,88.19,0,57.22-93.06,48.9-98.39,38.72,0,0,.57-33.71.57-55.55,0-35.26-17.14-48.49-42.27-48.49-48.53,0-73.62,90.41-73.62,187.57s36.27,145.34,116.66,145.34c35.7,0,78.44-23.76,88.39-31.03Z"/>
      <path d="m867.36,692.59c-28.58,26.67-49.42,34.5-87.5,34.5-41.09,0-86.62-21.38-86.62-67.89,0-67.69,73.38-80.23,104.07-95.21,30.68-14.97,64.26-20.29,64.26-66.51,0-14.45-3.96-41.32-22.81-41.32s-28.14,35.7-28.14,61.83c0,31.3-10.54,33.61-53.2,33.61-18.89,0-42.36-6.96-42.36-35.96,0-59.48,70.86-79.93,128.14-79.93,62.61,0,122.66,27.4,122.66,102.66l.16,120.74c0,28.82,18.64,43.28,35.14,43.28,3.89,0,5.07,3.1,5.07,6.67,0,2.4.43,5.83-4.39,7.63-9.64,3.62-39.56,10.38-60.72,10.38-58.02,0-67.09-23.02-73.76-34.5Zm-7.38-127.95s-15.04,10.89-27.57,24.02c-12.52,13.12-26.68,34.21-26.68,54.54,0,24.72,7.85,37.9,28.95,37.9,14.98,0,25.54-14.64,25.54-26.74,0,0-.24-86.81-.24-89.73Z"/>
      <path d="m505.84,726.97c-91.57,0-144.67-58.03-144.67-149.39s82.84-141.87,144.67-141.87c103.65,0,162.72,48.15,162.72,144.3,0,130.13-121.91,146.96-162.72,146.96Zm33.67-150.03c-2.25-42.89-7.14-122.33-40.65-120.58-33.51,1.76-29.36,80.96-27.07,124.59,2.29,43.64,7.34,129.6,40.67,127.85,33.33-1.75,29.3-88.97,27.06-131.87Z"/>
      <path d="m819.79,376.79v10.93h-190.4v-10.93c27.13,0,35.27-35.01,35.27-64.03,1.59,10.89,1.16-263.67,1.16-263.67,0-24.89-12.33-38.22-36.43-38.22V0h190.4v10.98c-28.32,0-37.76,13.22-37.76,38.11l.72,263.67c0,29.02,4.21,64.03,37.04,64.03Z"/>
      <path d="m961.75,110.55h62.87l-5.12,30.97h-57.75v141.24c0,35.31.27,64.47,25.99,64.47,14.95,0,29.81-5.36,38.05-11.97l9.86,8.95c-9.09,13.89-34.01,49.65-94.72,49.65s-84.15-34.19-84.15-111.11v-141.24h-30.94c0-8.1,2.19-26.41,22.93-30.52,21.96-4.35,54.75-40.9,54.75-68.98,0-6.19,4.43-11.71,12.68-11.71,16.53,0,45.55-6.11,45.55-6.11v86.35Z"/>
      <g>
        <path d="m1946.74,719.91h-171.53v-10.93c27.21,0,34.42-24.68,34.42-49.17v-151.71c0-24.98-9.71-36.87-34.42-36.87v-15.06c46.65,0,97.67-6.2,140.39-20.45v224.09c0,23.87,2.5,49.17,31.14,49.17v10.93Z"/>
        <path d="m1855.96,295.33c46.34,0,64.67,26.2,64.67,59.01s-18.32,58.77-64.67,58.77-62.48-25.95-62.48-58.77,16.14-59.01,62.48-59.01Z"/>
      </g>
      <path d="m2327.73,708.96v10.96h-171.51v-10.96c27.23,0,34.41-24.67,34.41-49.18v-28.89l-.25-111.1c0-15.13-4.95-43.54-25.93-43.54-23.49,0-42,22.28-53.4,36.64v146.88c0,3.73.04,7.51.29,11.2.04.97.12,1.91.2,2.88.2,2.68.53,5.36.97,7.91.24,1.38.53,2.76.85,4.06.28,1.26.65,2.47,1.05,3.69.16.57.36,1.18.65,1.75.16.57.4,1.14.69,1.7.2.57.45,1.1.77,1.62.24.57.53,1.1.85,1.58,4.26,7.38,11.36,12.33,23.17,12.74h.12c.49.04.97.04,1.5.04v10.96h-171.51v-10.96c27.23,0,34.41-24.67,34.41-49.18v-151.71l.04-1.62c0-1.18-.04-2.31-.16-3.41-.04-.73-.08-1.46-.2-2.15,0-.29-.04-.57-.08-.81-.04-.57-.08-1.14-.16-1.66-.12-.89-.29-1.79-.45-2.68-.04-.32-.12-.65-.2-.97,0-.08,0-.16-.04-.24-.12-.61-.24-1.22-.45-1.79-.28-1.3-.65-2.51-1.1-3.69-.12-.32-.24-.61-.36-.89-.04-.12-.08-.24-.16-.36-.24-.69-.53-1.34-.85-1.95-.16-.37-.36-.69-.57-1.01-.36-.73-.81-1.42-1.3-2.11-.57-.85-1.22-1.66-1.91-2.43-.49-.53-.97-1.06-1.54-1.54-.41-.37-.81-.73-1.26-1.06-1.14-.89-2.35-1.7-3.69-2.39-.81-.45-1.66-.85-2.56-1.22-1.22-.49-2.56-.93-3.98-1.3-2.11-.57-4.38-.97-6.86-1.22-.85-.08-1.66-.16-2.56-.2-1.3-.08-2.64-.12-4.02-.12v-15.05c8.28,0,16.68-.2,25.16-.61,1.42-.04,2.8-.12,4.22-.2,2.6-.12,5.19-.28,7.83-.49,7.83-.57,15.7-1.26,23.53-2.19.89-.08,1.83-.2,2.76-.32,5.32-.65,10.63-1.38,15.91-2.23,1.01-.12,2.07-.32,3.12-.49,2.72-.45,5.44-.89,8.11-1.42,2.72-.49,5.4-.97,8.03-1.54,1.5-.28,3-.61,4.5-.93.04,0,.08,0,.12-.04,1.91-.41,3.81-.81,5.68-1.26,2.56-.57,5.11-1.18,7.63-1.83,2.47-.61,4.95-1.26,7.38-1.95,1.66-.45,3.29-.89,4.91-1.42,1.91-.53,3.82-1.1,5.68-1.71,1.95-.57,3.9-1.18,5.8-1.82v40.01c16.43-17.97,57.45-40.01,98.6-40.01,14.57,0,29.3,3.9,42.36,11.52,24.99,14.65,43.86,42.97,43.86,83.79l.73,95.15v33.6c0,23.9,2.52,49.18,31.12,49.18Z"/>
      <path d="m1752.07,708.96v10.96h-171.51v-10.96c24.55,0,32.82-20.08,34.16-42,.16-2.39.24-4.79.24-7.18v-28.89l-.24-111.1c0-4.26-.41-9.49-1.42-14.89-1.7-9.09-5.19-18.5-11.6-23.98-.12-.08-.2-.16-.32-.24-3.37-2.76-7.51-4.42-12.58-4.42-6.61,0-12.82,1.75-18.58,4.63-.2.08-.41.2-.61.32-14.49,7.34-26.13,21.5-34.21,31.69v146.88c0,3.73.04,7.51.28,11.2.04.97.12,1.91.2,2.88.2,2.68.53,5.36.97,7.91.24,1.38.53,2.76.85,4.06.29,1.26.65,2.47,1.06,3.69.16.57.36,1.18.65,1.75.16.57.41,1.14.69,1.7.2.57.45,1.1.77,1.62.24.57.53,1.1.85,1.58,4.18,7.22,11.04,12.09,22.36,12.7.25,0,.53.04.81.04h.12c.49.04.97.04,1.5.04v10.96h-171.51v-10.96c2.52,0,4.87-.2,7.02-.65,20.98-3.82,27.1-25.24,27.35-46.99.04-.53.04-1.01.04-1.54l-.37-301.35c0-16.35-15.09-29.82-30.63-29.82v-8.73l136.94-17.57v133.41h.04v40.01c8.08-8.8,22.07-18.66,39.15-26.33,17.04-7.71,37.13-13.27,57.33-13.63.69-.04,1.42-.04,2.11-.04,8.89,0,17.85,1.46,26.45,4.3.2.08.41.16.61.2,5.27,1.83,10.39,4.14,15.3,7.02,7.79,4.58,14.97,10.47,21.22,17.65.32.36.61.73.89,1.14,13.11,15.66,21.63,37.25,21.75,64.39v.61l.73,95.15v33.6c0,23.9,2.52,49.18,31.12,49.18Z"/>
      <path d="m1385.92,537.19c0-99.69-80.04-180.17-187.54-187.87-7.28-.52-9.32-2.65-9.25-8.23.48-36.56,120.76-127.12,120.76-211.77l-204.67-.36c-11.87,0-17.06,4.85-18.63,16.68-1.45,10.92-6.19,48.38-7.17,57.06,7.48,0,9.54-.93,11.47-7.03,4.29-13.57,26.66-35.11,63.85-35.11l31.97-.64c0,41.06-126.11,143.69-126.11,246.13,136.62-23.25,229.92,39.71,233.81,144.99,2.26,61.13-20.88,141.47-92.36,145.35-46.65,2.53-104.33-34.21-104.33-124.5,0-59.28,33.79-117.59,55.66-113.46,11.91,2.25,12.51,24.83,10.29,34.17-2.34,9.83,13.32,13.09,23.66,13.09,12.15,0,21.77-8.2,21.77-21.06,0-27.49-27.03-58.69-84.67-49.67-55.93,8.75-108.88,57.24-112.72,127.42-4.43,80.88,63.08,165.98,183.84,165.98s190.36-74.53,190.36-191.18Z"/>
    </g>
  </g>
</svg>