<?xml version="1.0" encoding="UTF-8"?>
<svg id="Layer_2" data-name="Layer 2" xmlns="http://www.w3.org/2000/svg" viewBox="0 0 1219.71 723.65">
  <g id="Layer_1-2" data-name="Layer 1">
    <g>
      <path d="m920.38,722.25c-90.98,0-143.73-57.66-143.73-148.42s82.3-140.95,143.73-140.95c102.98,0,161.66,47.84,161.66,143.36,0,129.28-121.12,146.01-161.66,146.01Zm33.45-149.06c-2.23-42.62-7.09-121.54-40.39-119.79-33.3,1.74-29.17,80.43-26.9,123.78,2.27,43.35,7.29,128.76,40.41,127.02,33.12-1.74,29.11-88.4,26.88-131.01Z"/>
      <path d="m189.16,374.35v10.86H0v-10.86c26.96,0,35.04-34.79,35.04-63.62,1.58,10.82,1.15-261.96,1.15-261.96C36.2,24.04,23.95,10.8,0,10.8V0h189.16v10.91c-28.14,0-37.52,13.13-37.52,37.86l.72,261.96c0,28.83,4.18,63.62,36.8,63.62Z"/>
      <path d="m330.21,109.83h62.46l-5.08,30.77h-57.38v140.33c0,35.08.27,64.05,25.82,64.05,14.86,0,29.61-5.33,37.8-11.89l9.8,8.89c-9.03,13.8-33.79,49.33-94.1,49.33s-83.61-33.97-83.61-110.39v-140.33h-30.74c0-8.05,2.17-26.24,22.78-30.32,21.82-4.32,54.4-40.64,54.4-68.54,0-6.15,4.4-11.64,12.6-11.64,16.43,0,45.26-6.07,45.26-6.07v85.79Z"/>
      <path d="m1155.46,605.24c46.04,0,64.25,26.03,64.25,58.63s-18.2,58.39-64.25,58.39-62.07-25.78-62.07-58.39,16.03-58.63,62.07-58.63Z"/>
      <path d="m751.62,533.71c0-99.05-79.52-179-186.32-186.65-7.23-.52-9.26-2.64-9.19-8.18.48-36.32,119.98-126.3,119.98-210.4l-203.34-.36c-11.79,0-16.95,4.82-18.51,16.57-1.44,10.85-6.15,48.07-7.12,56.69,7.43,0,9.48-.92,11.4-6.98,4.26-13.49,26.49-34.88,63.43-34.88l31.76-.63c0,40.79-125.29,142.76-125.29,244.54,135.73-23.1,228.43,39.45,232.29,144.05,2.24,60.73-20.75,140.55-91.76,144.41-46.35,2.52-103.65-33.99-103.65-123.69,0-58.9,33.57-116.83,55.3-112.72,11.83,2.23,12.43,24.66,10.22,33.94-2.32,9.77,13.23,13,23.51,13,12.07,0,21.63-8.14,21.63-20.92,0-27.31-26.86-58.31-84.12-49.35-55.56,8.69-108.18,56.87-111.99,126.6-4.4,80.35,62.67,164.91,182.65,164.91s189.13-74.04,189.13-189.94Z"/>
    </g>
  </g>
</svg>